HIERARCHY
ROOT Hips
{
	OFFSET 0.00000 0.00000 0.00000
	CHANNELS 6 Xposition Yposition Zposition Zrotation Yrotation Xrotation 
	JOINT LHipJoint
	{
		OFFSET 0 0 0
		CHANNELS 3 Zrotation Yrotation Xrotation
		JOINT LeftUpLeg
		{
			OFFSET 1.57093 -1.69714 0.87455
			CHANNELS 3 Zrotation Yrotation Xrotation
			JOINT LeftLeg
			{
				OFFSET 2.48056 -6.81529 0.00000
				CHANNELS 3 Zrotation Yrotation Xrotation
				JOINT LeftFoot
				{
					OFFSET 2.62558 -7.21374 0.00000
					CHANNELS 3 Zrotation Yrotation Xrotation
					JOINT LeftToeBase
					{
						OFFSET 0.17911 -0.49210 2.16707
						CHANNELS 3 Zrotation Yrotation Xrotation
						End Site
						{
							OFFSET 0.00000 -0.00000 1.11848
						}
					}
				}
			}
		}
	}
	JOINT RHipJoint
	{
		OFFSET 0 0 0
		CHANNELS 3 Zrotation Yrotation Xrotation
		JOINT RightUpLeg
		{
			OFFSET -1.69739 -1.69715 0.87455
			CHANNELS 3 Zrotation Yrotation Xrotation
			JOINT RightLeg
			{
				OFFSET -2.33658 -6.41972 0.00000
				CHANNELS 3 Zrotation Yrotation Xrotation
				JOINT RightFoot
				{
					OFFSET -2.60856 -7.16696 0.00000
					CHANNELS 3 Zrotation Yrotation Xrotation
					JOINT RightToeBase
					{
						OFFSET -0.20854 -0.57296 2.11053
						CHANNELS 3 Zrotation Yrotation Xrotation
						End Site
						{
							OFFSET -0.00000 -0.00000 1.09848
						}
					}
				}
			}
		}
	}
	JOINT LowerBack
	{
		OFFSET 0 0 0
		CHANNELS 3 Zrotation Yrotation Xrotation
		JOINT Spine
		{
			OFFSET 0.02563 2.15732 -0.03270
			CHANNELS 3 Zrotation Yrotation Xrotation
			JOINT Spine1
			{
				OFFSET 0.00281 2.14662 0.09285
				CHANNELS 3 Zrotation Yrotation Xrotation
				JOINT Neck
				{
					OFFSET 0 0 0
					CHANNELS 3 Zrotation Yrotation Xrotation
					JOINT Neck1
					{
						OFFSET -0.04440 1.68397 0.17601
						CHANNELS 3 Zrotation Yrotation Xrotation
						JOINT Head
						{
							OFFSET 0.06040 1.66995 -0.35615
							CHANNELS 3 Zrotation Yrotation Xrotation
							End Site
							{
								OFFSET 0.02405 1.72189 -0.14044
							}
						}
					}
				}
				JOINT LeftShoulder
				{
					OFFSET 0 0 0
					CHANNELS 3 Zrotation Yrotation Xrotation
					JOINT LeftArm
					{
						OFFSET 2.98955 1.90907 -0.21660
						CHANNELS 3 Zrotation Yrotation Xrotation
						JOINT LeftForeArm
						{
							OFFSET 4.91377 -0.00000 0.00000
							CHANNELS 3 Zrotation Yrotation Xrotation
							JOINT LeftHand
							{
								OFFSET 3.00291 -0.00000 -0.00000
								CHANNELS 3 Zrotation Yrotation Xrotation
								JOINT LeftFingerBase
								{
									OFFSET 0 0 0
									CHANNELS 3 Zrotation Yrotation Xrotation
									JOINT LeftHandIndex1
									{
										OFFSET 0.45092 -0.00000 -0.00000
										CHANNELS 3 Zrotation Yrotation Xrotation
										End Site
										{
											OFFSET 0.36355 -0.00000 -0.00000
										}
									}
								}
								JOINT LThumb
								{
									OFFSET 0 0 0
									CHANNELS 3 Zrotation Yrotation Xrotation
									End Site
									{
										OFFSET 0.36910 -0.00000 0.36910
									}
								}
							}
						}
					}
				}
				JOINT RightShoulder
				{
					OFFSET 0 0 0
					CHANNELS 3 Zrotation Yrotation Xrotation
					JOINT RightArm
					{
						OFFSET -2.80452 1.90886 -0.21152
						CHANNELS 3 Zrotation Yrotation Xrotation
						JOINT RightForeArm
						{
							OFFSET -4.86725 -0.00000 0.00000
							CHANNELS 3 Zrotation Yrotation Xrotation
							JOINT RightHand
							{
								OFFSET -3.17144 -0.00000 -0.00000
								CHANNELS 3 Zrotation Yrotation Xrotation
								JOINT RightFingerBase
								{
									OFFSET 0 0 0
									CHANNELS 3 Zrotation Yrotation Xrotation
									JOINT RightHandIndex1
									{
										OFFSET -0.41937 -0.00000 -0.00000
										CHANNELS 3 Zrotation Yrotation Xrotation
										End Site
										{
											OFFSET -0.33810 -0.00000 -0.00000
										}
									}
								}
								JOINT RThumb
								{
									OFFSET 0 0 0
									CHANNELS 3 Zrotation Yrotation Xrotation
									End Site
									{
										OFFSET -0.34327 -0.00000 0.34327
									}
								}
							}
						}
					}
				}
			}
		}
	}
}
MOTION
Frames: 13
Frame Time: .0083333
0.4987 14.341 8.659 0 0 0 0 0 0 -21 0 0 0 0 0 0 0 0 0 0 0 0 0 0 21 0 0 0 0 0 0 0 0 0 0 0 0 0 0 0 0 0 0 0 0 0 0 -16 0 0 21 0 0 11 0 0 0 -8 0 0 0 0 0 0 0 0 0 0 0 0 0 0 0 0 0 0 0 0 8 0 0 0 0 0 0 0 0 0 0 0 0 0 0 0 0 0
0.4987 14.3410 8.6590 -2.4182 -7.7941 105.6550 0.0000 0.0000 0.0000 -29.7124 -3.0843 -76.5463 8.6583 16.5827 54.9007 -0.9428 17.1126 -9.4072 1.0479 6.5097 18.2707 0.0000 0.0000 0.0000 -23.5214 24.1751 -82.6034 -6.7851 -15.1483 48.0569 0.1713 12.3758 15.1389 -0.0474 1.4056 -3.8656 12.9609 9.2125 -9.5112 -11.4613 11.9134 -9.5419 -18.8004 5.7042 -0.0649 -0.6133 -7.1492 -16.6139 4.2725 -11.9768 43.0027 -0.2009 -3.8448 19.9691 0.0000 -0.0000 0.0000 102.2576 -37.7745 -91.9573 16.5369 -26.2432 -3.8803 -0.0000 0.0000 -39.2179 45.6864 -21.4610 -20.5430 -7.1250 0.0000 -0.0000 10.3086 1.0244 -10.2915 0.0000 -0.0000 0.0000 -51.8585 33.2977 -43.9932 -26.4970 37.6953 -9.1899 0.0000 -0.0000 -42.7606 -29.1283 -9.2939 5.1424 7.1250 -0.0000 -0.0000 -1.9288 -40.5832 -0.2102
0.5288 14.3472 8.6514 -2.2383 -8.0354 105.6570 0.0000 0.0000 0.0000 -30.3627 -2.6865 -76.5374 8.8076 16.6823 55.4225 -0.9440 17.1478 -9.5808 1.0326 6.4634 18.1350 0.0000 0.0000 0.0000 -23.5270 24.2913 -82.2701 -6.9136 -15.2587 48.5469 0.1370 12.4656 15.8204 -0.0404 1.2973 -3.5672 12.7323 9.1646 -9.7343 -11.4771 11.8365 -9.5994 -18.6685 5.6655 -0.0737 -0.6949 -7.1692 -16.7874 3.9193 -11.8212 42.8460 -0.3328 -3.8489 19.8624 0.0000 -0.0000 0.0000 101.8925 -37.7141 -91.5495 16.5410 -26.2487 -3.8821 -0.0000 0.0000 -39.4024 45.6716 -21.5092 -20.5735 -7.1250 0.0000 -0.0000 10.2884 0.9697 -10.2808 0.0000 -0.0000 0.0000 -52.1770 33.3577 -44.1861 -26.4625 37.6617 -9.1688 0.0000 -0.0000 -42.7346 -29.1365 -9.3088 5.1523 7.1250 -0.0000 -0.0000 -1.9354 -40.6008 -0.2100
0.5599 14.3525 8.6414 -2.1239 -8.1767 105.8450 0.0000 0.0000 0.0000 -30.8305 -2.3553 -76.7778 8.9789 16.7941 56.0171 -0.9582 17.2380 -9.4251 0.9393 6.1730 17.2873 0.0000 0.0000 0.0000 -23.5039 24.4164 -82.1567 -7.0418 -15.3670 49.0323 0.1020 12.5039 16.3985 -0.0362 1.2282 -3.3770 12.6083 9.1509 -10.1090 -11.4815 11.7869 -9.7101 -18.5611 5.6388 -0.0348 -0.8951 -7.1650 -16.9240 3.7175 -11.6348 42.4757 -0.3623 -3.8547 19.6361 -0.0000 0.0000 0.0000 101.3840 -37.6382 -90.9099 16.5645 -26.2801 -3.8926 -0.0000 0.0000 -39.5162 45.7837 -21.2578 -20.4365 -7.1250 0.0000 -0.0000 10.4138 1.2421 -10.3593 -0.0000 0.0000 0.0000 -52.6628 33.3422 -44.4355 -26.4104 37.6111 -9.1370 0.0000 -0.0000 -42.7028 -29.2004 -9.4785 5.2585 7.1250 -0.0000 -0.0000 -1.9838 -40.7996 -0.2056
0.5936 14.3610 8.6337 -1.9783 -8.3796 105.9300 0.0000 0.0000 0.0000 -31.2936 -2.0659 -76.7717 9.1445 16.8998 56.5885 -0.9364 17.0763 -9.5111 0.8511 5.8839 16.4481 0.0000 0.0000 0.0000 -23.4000 24.4844 -81.9210 -7.1748 -15.4774 49.5325 0.0835 12.5932 16.7977 -0.0335 1.1807 -3.2461 12.4263 9.1347 -10.3885 -11.5059 11.7484 -9.7954 -18.4528 5.6200 -0.0192 -1.2093 -7.1872 -17.0320 3.6415 -11.4939 42.0383 -0.3192 -3.8812 19.3921 -0.0000 -0.0000 0.0000 101.0553 -37.3623 -90.5294 16.4921 -26.1833 -3.8605 -0.0000 0.0000 -39.5343 45.6719 -21.3047 -20.4027 -7.1250 0.0000 -0.0000 10.3374 1.2260 -10.2837 -0.0000 -0.0000 0.0000 -52.9710 33.2894 -44.4181 -26.3951 37.5962 -9.1276 0.0000 -0.0000 -42.2934 -29.5079 -9.2464 5.1961 7.1250 -0.0000 -0.0000 -2.2674 -40.5648 -0.2481
0.6269 14.3686 8.6243 -1.8582 -8.5714 106.0370 0.0000 0.0000 0.0000 -31.7223 -1.7759 -76.8198 9.3177 17.0079 57.1826 -0.9288 17.0136 -9.4983 0.7995 5.7070 15.9366 0.0000 0.0000 0.0000 -23.3029 24.5679 -81.7209 -7.3076 -15.5855 50.0282 0.0545 12.6339 17.2549 -0.0298 1.1136 -3.0614 12.2452 9.1237 -10.6858 -11.5254 11.7160 -9.8850 -18.3352 5.6048 0.0028 -1.4477 -7.2094 -17.1613 3.4905 -11.3538 41.6407 -0.3253 -3.9028 19.1683 0.0000 -0.0000 0.0000 100.7013 -37.1575 -90.1752 16.4312 -26.1019 -3.8337 -0.0000 0.0000 -39.5610 45.5985 -21.3964 -20.4314 -7.1250 0.0000 -0.0000 10.2727 1.1391 -10.2333 0.0000 -0.0000 0.0000 -53.3209 33.2681 -44.5540 -26.3506 37.5528 -9.1005 0.0000 -0.0000 -41.8855 -29.6612 -9.1981 5.2014 7.1250 -0.0000 -0.0000 -2.4054 -40.5242 -0.2656
0.6612 14.3777 8.6157 -1.7485 -8.7666 106.1120 0.0000 0.0000 0.0000 -32.1018 -1.4992 -76.7948 9.4893 17.1125 57.7674 -0.9200 16.9372 -9.4628 0.7700 5.6032 15.6373 0.0000 0.0000 0.0000 -23.1529 24.6470 -81.4915 -7.4443 -15.6949 50.5353 0.0278 12.6622 17.6496 -0.0264 1.0484 -2.8819 12.0655 9.1128 -10.9447 -11.5435 11.6883 -9.9634 -18.2205 5.5922 0.0185 -1.6702 -7.2287 -17.2981 3.3246 -11.2079 41.2084 -0.3392 -3.9225 18.9262 0.0000 -0.0000 0.0000 100.3523 -36.9192 -89.8270 16.3558 -26.0007 -3.8006 -0.0000 0.0000 -39.5571 45.5411 -21.4961 -20.4770 -7.1250 0.0000 -0.0000 10.2155 1.0361 -10.1933 0.0000 -0.0000 0.0000 -53.6693 33.2460 -44.7311 -26.2843 37.4881 -9.0601 0.0000 -0.0000 -41.2719 -29.7953 -9.1625 5.2097 7.1250 -0.0000 -0.0000 -2.5257 -40.4962 -0.2807
0.6966 14.3881 8.6080 -1.6575 -8.9714 106.1640 0.0000 0.0000 0.0000 -32.4469 -1.2318 -76.7182 9.6619 17.2153 58.3522 -0.9111 16.8576 -9.4122 0.7624 5.5760 15.5591 0.0000 0.0000 0.0000 -22.9619 24.7187 -81.2427 -7.5815 -15.8026 51.0408 0.0018 12.6750 18.0034 -0.0231 0.9803 -2.6947 11.8748 9.1048 -11.1778 -11.5610 11.6685 -10.0337 -18.0996 5.5844 0.0307 -1.8390 -7.2523 -17.4597 3.0950 -11.0637 40.7850 -0.3922 -3.9415 18.6897 0.0000 -0.0000 0.0000 100.0122 -36.6608 -89.4983 16.2647 -25.8782 -3.7607 -0.0000 0.0000 -39.5216 45.5101 -21.6020 -20.5445 -7.1250 0.0000 -0.0000 10.1721 0.9157 -10.1706 0.0000 -0.0000 0.0000 -54.0185 33.2063 -44.8975 -26.2040 37.4095 -9.0113 0.0000 -0.0000 -40.4457 -29.9311 -9.1383 5.2246 7.1250 -0.0000 -0.0000 -2.6470 -40.4813 -0.2952
0.7331 14.4001 8.6010 -1.5889 -9.1950 106.1930 0.0000 0.0000 0.0000 -32.7699 -0.9723 -76.5902 9.8336 17.3152 58.9306 -0.9062 16.8037 -9.3153 0.7810 5.6420 15.7491 0.0000 0.0000 0.0000 -22.7399 24.7823 -80.9759 -7.7199 -15.9093 51.5475 -0.0237 12.6761 18.3247 -0.0199 0.9102 -2.5018 11.6594 9.0964 -11.3816 -11.5774 11.6532 -10.0932 -17.9640 5.5801 0.0369 -1.9539 -7.2803 -17.6420 2.8153 -10.9277 40.3718 -0.4784 -3.9609 18.4605 0.0000 -0.0000 0.0000 99.6760 -36.3967 -89.1935 16.1568 -25.7328 -3.7138 -0.0000 0.0000 -39.4364 45.5136 -21.6660 -20.5999 -7.1250 0.0000 -0.0000 10.1588 0.8343 -10.1717 0.0000 -0.0000 0.0000 -54.3817 33.1440 -45.0544 -26.0977 37.3050 -8.9468 0.0000 -0.0000 -39.3661 -30.0537 -9.1208 5.2404 7.1250 -0.0000 -0.0000 -2.7562 -40.4728 -0.3079
0.7705 14.4130 8.5944 -1.5392 -9.4233 106.2140 0.0000 0.0000 0.0000 -33.0567 -0.7273 -76.4333 10.0050 17.4126 59.5049 -0.9059 16.7837 -9.1915 0.8111 5.7474 16.0534 0.0000 0.0000 0.0000 -22.4852 24.8366 -80.7076 -7.8590 -16.0145 52.0531 -0.0503 12.6610 18.6291 -0.0167 0.8354 -2.2961 11.4335 9.0896 -11.5716 -11.5895 11.6429 -10.1476 -17.8172 5.5790 0.0410 -1.9707 -7.3199 -17.8714 2.4155 -10.8004 40.0093 -0.6387 -3.9820 18.2580 -0.0000 0.0000 0.0000 99.3106 -36.1208 -88.7978 16.0519 -25.5909 -3.6683 -0.0000 0.0000 -39.3896 45.5509 -21.6724 -20.6298 -7.1250 0.0000 -0.0000 10.1790 0.8120 -10.1967 -0.0000 0.0000 0.0000 -54.7682 33.0516 -45.1826 -25.9529 37.1622 -8.8592 0.0000 -0.0000 -38.0025 -30.1619 -9.0790 5.2393 7.1250 -0.0000 -0.0000 -2.8535 -40.4350 -0.3215
0.8087 14.4268 8.5881 -1.5062 -9.6607 106.2190 0.0000 0.0000 0.0000 -33.3150 -0.4947 -76.2401 10.1753 17.5073 60.0728 -0.9107 16.7928 -8.9702 0.8944 6.0276 16.8645 0.0000 0.0000 0.0000 -22.2011 24.8823 -80.4292 -7.9984 -16.1181 52.5570 -0.0773 12.6353 18.9183 -0.0132 0.7415 -2.0377 11.1815 9.0840 -11.7433 -11.5952 11.6384 -10.1942 -17.6465 5.5819 0.0408 -1.9678 -7.3696 -18.1040 2.0120 -10.6957 39.6472 -0.8063 -4.0098 18.0601 0.0000 -0.0000 0.0000 98.9324 -35.8455 -88.3491 15.9419 -25.4417 -3.6209 -0.0000 0.0000 -39.3657 45.6014 -21.6118 -20.6128 -7.1250 0.0000 -0.0000 10.2230 0.8683 -10.2319 0.0000 -0.0000 0.0000 -55.1705 32.9181 -45.2405 -25.7662 36.9769 -8.7466 0.0000 -0.0000 -36.3482 -30.2576 -8.9791 5.2023 7.1250 -0.0000 -0.0000 -2.9415 -40.3294 -0.3391
0.8476 14.4412 8.5821 -1.4891 -9.8937 106.2190 0.0000 0.0000 0.0000 -33.5283 -0.2810 -76.0281 10.3448 17.5992 60.6347 -0.9208 16.8393 -8.6723 1.0266 6.4454 18.0823 0.0000 0.0000 0.0000 -21.8864 24.9224 -80.1556 -8.1379 -16.2197 53.0577 -0.1074 12.5911 19.2118 -0.0098 0.6380 -1.7533 10.9111 9.0820 -11.9112 -11.5909 11.6413 -10.2373 -17.4504 5.5897 0.0402 -1.9549 -7.4323 -18.3297 1.6176 -10.6197 39.2907 -0.9746 -4.0462 17.8689 -0.0000 0.0000 0.0000 98.5634 -35.5895 -87.9304 15.8086 -25.2604 -3.5639 -0.0000 0.0000 -39.3233 45.5913 -21.5478 -20.5529 -7.1250 0.0000 -0.0000 10.2324 0.9522 -10.2262 -0.0000 0.0000 0.0000 -55.5898 32.7519 -45.2465 -25.5253 36.7361 -8.6022 0.0000 -0.0000 -34.4057 -30.3140 -8.7984 5.1105 7.1250 -0.0000 -0.0000 -2.9968 -40.1271 -0.3604
0.8872 14.4559 8.5761 -1.4841 -10.1203 106.2160 0.0000 0.0000 0.0000 -33.7009 -0.0844 -75.7998 10.5123 17.6880 61.1874 -0.9342 16.9125 -8.3190 1.2047 6.9635 19.6074 0.0000 0.0000 0.0000 -21.5460 24.9564 -79.8917 -8.2784 -16.3202 53.5594 -0.1399 12.5249 19.4997 -0.0068 0.5337 -1.4665 10.6332 9.0787 -12.0703 -11.5770 11.6441 -10.2787 -17.2395 5.5972 0.0335 -1.9346 -7.5020 -18.5514 1.2224 -10.5569 38.9110 -1.1441 -4.0887 17.6672 0.0000 -0.0000 0.0000 97.3485 -35.2807 -85.6827 16.2937 -25.9172 -3.7734 -0.0000 0.0000 -40.6323 45.6702 -21.1962 -20.3106 -7.1250 0.0000 -0.0000 10.3622 1.3629 -10.2837 0.0000 -0.0000 0.0000 -56.0313 32.5643 -45.2291 -25.2265 36.4346 -8.4240 0.0000 -0.0000 -32.2025 -30.2971 -8.5545 4.9672 7.1250 -0.0000 -0.0000 -2.9887 -39.8454 -0.3801
